# xmcd CD database file
#
# Track frame offsets:
#	150
#	20852
#	30825
#
# Disc length: 608 seconds
#
# Revision: 0
# Processed by: cddbd v1.5.1PL0 Copyright (c) Steve Scherf et al.
# Submitted via: CDex 1.51
#
DISCID=19025e03
DTITLE=PENPALS - X'masmile
DYEAR=1900
DGENRE=Rock
TTITLE0=X'masmile
TTITLE1=All I Want For Christmas Is You
TTITLE2=Christmas Time
EXTD=
EXTT0=
EXTT1=
EXTT2=
PLAYORDER=
